<mxfile host="app.diagrams.net" modified="2023-07-10T03:23:31.281Z" agent="Mozilla/5.0 (Macintosh; Intel Mac OS X 10_15_7) AppleWebKit/537.36 (KHTML, like Gecko) Chrome/114.0.0.0 Safari/537.36" version="21.6.1" etag="OfHE-CEmsvz-1ih5FkhQ" type="github">
  <diagram name="第 1 页" id="sE6MuhjMjhwjqjo7i5a7">
    <mxGraphModel>
      <root>
        <mxCell id="0" />
        <mxCell id="1" parent="0" />
      </root>
    </mxGraphModel>
  </diagram>
</mxfile>
